# xmcd
#
# Track frame offsets:
#  150
#  11704
#  22937
#  33266
#  45177
#  56242
#  67923
#  78791
#  90426
#  103176
#  113834
#  126246
#  135612
#  146899
#  156973
#  168901
#  179466
#  189150
#  198370
#  210296
#  222895
#  234867
#  244242
#  255651
#  267507
#  276873
#  288101
#  299452
#  309697
#  321355
#  333646
#  344117
#
# Disc length: 4733 seconds
#
# Revision: 0
# Processed by: cddbd v1.5.2PL0 Copyright (c) Steve Scherf et al.
# Submitted via: AltoMP3_Maker 3.0
#
DISCID=d9127b20
DTITLE=Various Artist - Capitol Hillbilly, Vol. 4
DYEAR=1900
DGENRE=
TTITLE0=Ramblin' Jimmie Dolan - Red Hot Mama
TTITLE1=Rod Morris - Cold Cold Cornbread
TTITLE2=Lee Bonds - Done Gone Crazy
TTITLE3=Skeets McDonald - Remember You're Mine
TTITLE4=Tommy Collins - All of the Monkeys Ain't in the Zoo
TTITLE5=Boots Faye and Idaho Call - Grinnin' Like a Possum
TTITLE6=Roy Acuff - Rushing Around
TTITLE7=Hank Thompson - Hangover Tavern
TTITLE8=Texas Bill Strength - Cry, Cry, Cry
TTITLE9=Jimmy Heap - Cat'n Around
TTITLE10=Carl Butler - Plastic Heart
TTITLE11=Wynn Stewart - Why Do I Love You So
TTITLE12=Merle Travis - Turn My Picture Upside Down
TTITLE13=Jimmie Skinner - Your Flyin' Days Are Through
TTITLE14=Jack Guthrie - When the Cactus Is in Bloom
TTITLE15=Gene O'Quinn - I Get the Blues
TTITLE16=Werly Fairburn - Good Deal Lucille
TTITLE17=Joe Carson - Take Me in Your Arms
TTITLE18=Jimmy Lee - Knocking on Your Front Door
TTITLE19=Billy Strange - Catsup and Honey
TTITLE20=Ole Rasmussen - Sleepy Eyed John
TTITLE21=Boots Woodall - I Might Have Been
TTITLE22=Bob Atcher - Smoke Comes out My Chimney
TTITLE23=Cliffie Stone - Jump Rope Boogie
TTITLE24=Faron Young - It's a Great Life
TTITLE25=Merrill Moore - Snatchin' and Grabbin'
TTITLE26=Ann Jones - Doin' Fine
TTITLE27=Fred Baker - I Gotta Do What I Gotta Do
TTITLE28=Al Rogers - All Alone All Alone
TTITLE29=Leon Payne - Poke Green Salad
TTITLE30=Hylo Brown - The Wrong Kind of Love
TTITLE31=Ira and Charley Louvin - Plenty of Everything but You
EXTD=
EXTT0=
EXTT1=
EXTT2=
EXTT3=
EXTT4=
EXTT5=
EXTT6=
EXTT7=
EXTT8=
EXTT9=
EXTT10=
EXTT11=
EXTT12=
EXTT13=
EXTT14=
EXTT15=
EXTT16=
EXTT17=
EXTT18=
EXTT19=
EXTT20=
EXTT21=
EXTT22=
EXTT23=
EXTT24=
EXTT25=
EXTT26=
EXTT27=
EXTT28=
EXTT29=
EXTT30=
EXTT31=
PLAYORDER=
